<svg width="174" height="66" viewBox="0 0 174 66" fill="none" xmlns="http://www.w3.org/2000/svg">
<path d="M5.928 50V13.6H9.776V46.672H30.16V50H5.928ZM101.335 50.26C98.6999 50.26 96.3253 49.6707 94.2106 48.492C92.1306 47.2787 90.4839 45.632 89.2706 43.552C88.0573 41.4373 87.4506 39.028 87.4506 36.324C87.4506 33.5853 88.0573 31.176 89.2706 29.096C90.4839 27.016 92.1306 25.3867 94.2106 24.208C96.2906 23.0293 98.6653 22.44 101.335 22.44C104.039 22.44 106.431 23.0293 108.511 24.208C110.625 25.3867 112.272 27.016 113.451 29.096C114.664 31.176 115.271 33.5853 115.271 36.324C115.271 39.028 114.664 41.4373 113.451 43.552C112.272 45.632 110.625 47.2787 108.511 48.492C106.396 49.6707 104.004 50.26 101.335 50.26ZM101.335 46.984C103.311 46.984 105.061 46.5507 106.587 45.684C108.112 44.7827 109.308 43.5347 110.175 41.94C111.076 40.3107 111.527 38.4387 111.527 36.324C111.527 34.1747 111.076 32.3027 110.175 30.708C109.308 29.1133 108.112 27.8827 106.587 27.016C105.061 26.1147 103.328 25.664 101.387 25.664C99.4453 25.664 97.7119 26.1147 96.1866 27.016C94.6613 27.8827 93.4479 29.1133 92.5466 30.708C91.6453 32.3027 91.1946 34.1747 91.1946 36.324C91.1946 38.4387 91.6453 40.3107 92.5466 41.94C93.4479 43.5347 94.6613 44.7827 96.1866 45.684C97.7119 46.5507 99.4279 46.984 101.335 46.984ZM125.72 42.928L125.824 38.196L142.828 22.7H147.352L135.34 34.192L133.26 35.96L125.72 42.928ZM122.808 50V11.416H126.5V50H122.808ZM143.972 50L132.584 35.804L134.976 32.944L148.496 50H143.972ZM160.558 50.26C158.305 50.26 156.173 49.948 154.162 49.324C152.151 48.6653 150.574 47.8507 149.43 46.88L151.094 43.968C152.203 44.8 153.625 45.528 155.358 46.152C157.091 46.7413 158.911 47.036 160.818 47.036C163.418 47.036 165.29 46.6373 166.434 45.84C167.578 45.008 168.15 43.916 168.15 42.564C168.15 41.5587 167.821 40.7787 167.162 40.224C166.538 39.6347 165.706 39.2013 164.666 38.924C163.626 38.612 162.465 38.352 161.182 38.144C159.899 37.936 158.617 37.6933 157.334 37.416C156.086 37.1387 154.942 36.74 153.902 36.22C152.862 35.6653 152.013 34.92 151.354 33.984C150.73 33.048 150.418 31.8 150.418 30.24C150.418 28.7493 150.834 27.4147 151.666 26.236C152.498 25.0573 153.711 24.1387 155.306 23.48C156.935 22.7867 158.911 22.44 161.234 22.44C163.002 22.44 164.77 22.6827 166.538 23.168C168.306 23.6187 169.762 24.2253 170.906 24.988L169.294 27.952C168.081 27.12 166.781 26.5307 165.394 26.184C164.007 25.8027 162.621 25.612 161.234 25.612C158.773 25.612 156.953 26.0453 155.774 26.912C154.63 27.744 154.058 28.8187 154.058 30.136C154.058 31.176 154.37 31.9907 154.994 32.58C155.653 33.1693 156.502 33.6373 157.542 33.984C158.617 34.296 159.778 34.556 161.026 34.764C162.309 34.972 163.574 35.232 164.822 35.544C166.105 35.8213 167.266 36.22 168.306 36.74C169.381 37.2253 170.23 37.936 170.854 38.872C171.513 39.7733 171.842 40.9693 171.842 42.46C171.842 44.0547 171.391 45.4413 170.49 46.62C169.623 47.764 168.341 48.6653 166.642 49.324C164.978 49.948 162.95 50.26 160.558 50.26Z" fill="black"/>
<path d="M59.583 12.25C70.8127 12.25 79.9168 21.3534 79.917 32.583C79.917 37.8382 77.9227 42.6273 74.6504 46.2363L84.457 56.043L84.5254 56.1182C84.846 56.5109 84.8232 57.0908 84.457 57.457C84.0908 57.8233 83.5109 57.8461 83.1182 57.5254L83.043 57.457L73.2363 47.6504C69.6273 50.9227 64.8382 52.917 59.583 52.917C48.3534 52.9168 39.25 43.8127 39.25 32.583C39.2502 21.3535 48.3535 12.2502 59.583 12.25ZM59.583 14.25C49.458 14.2502 41.2502 22.458 41.25 32.583C41.25 42.7081 49.4579 50.9168 59.583 50.917C64.5723 50.917 69.0946 48.922 72.4004 45.6885C72.4372 45.6324 72.481 45.5796 72.5303 45.5303C72.5796 45.481 72.6324 45.4372 72.6885 45.4004C75.922 42.0946 77.917 37.5723 77.917 32.583C77.9168 22.4579 69.7081 14.25 59.583 14.25Z" fill="#3B1B1B"/>
</svg>
