<svg width="174" height="97" viewBox="0 0 174 97" fill="none" xmlns="http://www.w3.org/2000/svg">
<path d="M1.494 17V4.4H4.41V14.624H10.728V17H1.494ZM18.8063 17.216C17.8103 17.216 16.8863 17.054 16.0343 16.73C15.1943 16.406 14.4623 15.95 13.8383 15.362C13.2263 14.774 12.7463 14.084 12.3983 13.292C12.0623 12.5 11.8943 11.636 11.8943 10.7C11.8943 9.764 12.0623 8.9 12.3983 8.108C12.7463 7.316 13.2323 6.626 13.8563 6.038C14.4803 5.45 15.2123 4.994 16.0523 4.67C16.8923 4.346 17.8043 4.184 18.7883 4.184C19.7843 4.184 20.6963 4.346 21.5243 4.67C22.3643 4.994 23.0903 5.45 23.7023 6.038C24.3263 6.626 24.8123 7.316 25.1603 8.108C25.5083 8.888 25.6823 9.752 25.6823 10.7C25.6823 11.636 25.5083 12.506 25.1603 13.31C24.8123 14.102 24.3263 14.792 23.7023 15.38C23.0903 15.956 22.3643 16.406 21.5243 16.73C20.6963 17.054 19.7903 17.216 18.8063 17.216ZM18.7883 14.732C19.3523 14.732 19.8683 14.636 20.3363 14.444C20.8163 14.252 21.2363 13.976 21.5963 13.616C21.9563 13.256 22.2323 12.83 22.4243 12.338C22.6283 11.846 22.7303 11.3 22.7303 10.7C22.7303 10.1 22.6283 9.554 22.4243 9.062C22.2323 8.57 21.9563 8.144 21.5963 7.784C21.2483 7.424 20.8343 7.148 20.3543 6.956C19.8743 6.764 19.3523 6.668 18.7883 6.668C18.2243 6.668 17.7023 6.764 17.2223 6.956C16.7543 7.148 16.3403 7.424 15.9803 7.784C15.6203 8.144 15.3383 8.57 15.1343 9.062C14.9423 9.554 14.8463 10.1 14.8463 10.7C14.8463 11.288 14.9423 11.834 15.1343 12.338C15.3383 12.83 15.6143 13.256 15.9623 13.616C16.3223 13.976 16.7423 14.252 17.2223 14.444C17.7023 14.636 18.2243 14.732 18.7883 14.732ZM34.4978 17.216C33.5018 17.216 32.5838 17.06 31.7438 16.748C30.9158 16.424 30.1898 15.968 29.5658 15.38C28.9538 14.792 28.4738 14.102 28.1258 13.31C27.7898 12.518 27.6218 11.648 27.6218 10.7C27.6218 9.752 27.7898 8.882 28.1258 8.09C28.4738 7.298 28.9598 6.608 29.5838 6.02C30.2078 5.432 30.9398 4.982 31.7798 4.67C32.6198 4.346 33.5438 4.184 34.5518 4.184C35.6678 4.184 36.6698 4.37 37.5578 4.742C38.4578 5.114 39.2138 5.654 39.8258 6.362L37.9538 8.09C37.4978 7.61 36.9998 7.256 36.4598 7.028C35.9198 6.788 35.3318 6.668 34.6958 6.668C34.0838 6.668 33.5258 6.764 33.0218 6.956C32.5178 7.148 32.0798 7.424 31.7078 7.784C31.3478 8.144 31.0658 8.57 30.8618 9.062C30.6698 9.554 30.5738 10.1 30.5738 10.7C30.5738 11.288 30.6698 11.828 30.8618 12.32C31.0658 12.812 31.3478 13.244 31.7078 13.616C32.0798 13.976 32.5118 14.252 33.0038 14.444C33.5078 14.636 34.0598 14.732 34.6598 14.732C35.2358 14.732 35.7938 14.642 36.3338 14.462C36.8858 14.27 37.4198 13.952 37.9358 13.508L39.5918 15.614C38.9078 16.13 38.1098 16.526 37.1978 16.802C36.2978 17.078 35.3978 17.216 34.4978 17.216ZM36.9278 15.236V10.502H39.5918V15.614L36.9278 15.236ZM48.9606 17.216C47.9646 17.216 47.0406 17.054 46.1886 16.73C45.3486 16.406 44.6166 15.95 43.9926 15.362C43.3806 14.774 42.9006 14.084 42.5526 13.292C42.2166 12.5 42.0486 11.636 42.0486 10.7C42.0486 9.764 42.2166 8.9 42.5526 8.108C42.9006 7.316 43.3866 6.626 44.0106 6.038C44.6346 5.45 45.3666 4.994 46.2066 4.67C47.0466 4.346 47.9586 4.184 48.9426 4.184C49.9386 4.184 50.8506 4.346 51.6786 4.67C52.5186 4.994 53.2446 5.45 53.8566 6.038C54.4806 6.626 54.9666 7.316 55.3146 8.108C55.6626 8.888 55.8366 9.752 55.8366 10.7C55.8366 11.636 55.6626 12.506 55.3146 13.31C54.9666 14.102 54.4806 14.792 53.8566 15.38C53.2446 15.956 52.5186 16.406 51.6786 16.73C50.8506 17.054 49.9446 17.216 48.9606 17.216ZM48.9426 14.732C49.5066 14.732 50.0226 14.636 50.4906 14.444C50.9706 14.252 51.3906 13.976 51.7506 13.616C52.1106 13.256 52.3866 12.83 52.5786 12.338C52.7826 11.846 52.8846 11.3 52.8846 10.7C52.8846 10.1 52.7826 9.554 52.5786 9.062C52.3866 8.57 52.1106 8.144 51.7506 7.784C51.4026 7.424 50.9886 7.148 50.5086 6.956C50.0286 6.764 49.5066 6.668 48.9426 6.668C48.3786 6.668 47.8566 6.764 47.3766 6.956C46.9086 7.148 46.4946 7.424 46.1346 7.784C45.7746 8.144 45.4926 8.57 45.2886 9.062C45.0966 9.554 45.0006 10.1 45.0006 10.7C45.0006 11.288 45.0966 11.834 45.2886 12.338C45.4926 12.83 45.7686 13.256 46.1166 13.616C46.4766 13.976 46.8966 14.252 47.3766 14.444C47.8566 14.636 48.3786 14.732 48.9426 14.732Z" fill="#A19696"/>
<path d="M5.928 81V44.6H9.776V77.672H30.16V81H5.928ZM101.335 81.26C98.6999 81.26 96.3253 80.6707 94.2106 79.492C92.1306 78.2787 90.4839 76.632 89.2706 74.552C88.0573 72.4373 87.4506 70.028 87.4506 67.324C87.4506 64.5853 88.0573 62.176 89.2706 60.096C90.4839 58.016 92.1306 56.3867 94.2106 55.208C96.2906 54.0293 98.6653 53.44 101.335 53.44C104.039 53.44 106.431 54.0293 108.511 55.208C110.625 56.3867 112.272 58.016 113.451 60.096C114.664 62.176 115.271 64.5853 115.271 67.324C115.271 70.028 114.664 72.4373 113.451 74.552C112.272 76.632 110.625 78.2787 108.511 79.492C106.396 80.6707 104.004 81.26 101.335 81.26ZM101.335 77.984C103.311 77.984 105.061 77.5507 106.587 76.684C108.112 75.7827 109.308 74.5347 110.175 72.94C111.076 71.3107 111.527 69.4387 111.527 67.324C111.527 65.1747 111.076 63.3027 110.175 61.708C109.308 60.1133 108.112 58.8827 106.587 58.016C105.061 57.1147 103.328 56.664 101.387 56.664C99.4453 56.664 97.7119 57.1147 96.1866 58.016C94.6613 58.8827 93.4479 60.1133 92.5466 61.708C91.6453 63.3027 91.1946 65.1747 91.1946 67.324C91.1946 69.4387 91.6453 71.3107 92.5466 72.94C93.4479 74.5347 94.6613 75.7827 96.1866 76.684C97.7119 77.5507 99.4279 77.984 101.335 77.984ZM125.72 73.928L125.824 69.196L142.828 53.7H147.352L135.34 65.192L133.26 66.96L125.72 73.928ZM122.808 81V42.416H126.5V81H122.808ZM143.972 81L132.584 66.804L134.976 63.944L148.496 81H143.972ZM160.558 81.26C158.305 81.26 156.173 80.948 154.162 80.324C152.151 79.6653 150.574 78.8507 149.43 77.88L151.094 74.968C152.203 75.8 153.625 76.528 155.358 77.152C157.091 77.7413 158.911 78.036 160.818 78.036C163.418 78.036 165.29 77.6373 166.434 76.84C167.578 76.008 168.15 74.916 168.15 73.564C168.15 72.5587 167.821 71.7787 167.162 71.224C166.538 70.6347 165.706 70.2013 164.666 69.924C163.626 69.612 162.465 69.352 161.182 69.144C159.899 68.936 158.617 68.6933 157.334 68.416C156.086 68.1387 154.942 67.74 153.902 67.22C152.862 66.6653 152.013 65.92 151.354 64.984C150.73 64.048 150.418 62.8 150.418 61.24C150.418 59.7493 150.834 58.4147 151.666 57.236C152.498 56.0573 153.711 55.1387 155.306 54.48C156.935 53.7867 158.911 53.44 161.234 53.44C163.002 53.44 164.77 53.6827 166.538 54.168C168.306 54.6187 169.762 55.2253 170.906 55.988L169.294 58.952C168.081 58.12 166.781 57.5307 165.394 57.184C164.007 56.8027 162.621 56.612 161.234 56.612C158.773 56.612 156.953 57.0453 155.774 57.912C154.63 58.744 154.058 59.8187 154.058 61.136C154.058 62.176 154.37 62.9907 154.994 63.58C155.653 64.1693 156.502 64.6373 157.542 64.984C158.617 65.296 159.778 65.556 161.026 65.764C162.309 65.972 163.574 66.232 164.822 66.544C166.105 66.8213 167.266 67.22 168.306 67.74C169.381 68.2253 170.23 68.936 170.854 69.872C171.513 70.7733 171.842 71.9693 171.842 73.46C171.842 75.0547 171.391 76.4413 170.49 77.62C169.623 78.764 168.341 79.6653 166.642 80.324C164.978 80.948 162.95 81.26 160.558 81.26Z" fill="black"/>
<path d="M59.583 43.25C70.8127 43.25 79.9168 52.3534 79.917 63.583C79.917 68.8382 77.9227 73.6273 74.6504 77.2363L84.457 87.043L84.5254 87.1182C84.846 87.5109 84.8232 88.0908 84.457 88.457C84.0908 88.8233 83.5109 88.8461 83.1182 88.5254L83.043 88.457L73.2363 78.6504C69.6273 81.9227 64.8382 83.917 59.583 83.917C48.3534 83.9168 39.25 74.8127 39.25 63.583C39.2502 52.3535 48.3535 43.2502 59.583 43.25ZM59.583 45.25C49.458 45.2502 41.2502 53.458 41.25 63.583C41.25 73.7081 49.4579 81.9168 59.583 81.917C64.5726 81.917 69.0956 79.9223 72.4014 76.6885C72.4381 76.6326 72.4811 76.5794 72.5303 76.5303C72.5795 76.4811 72.6326 76.4381 72.6885 76.4014C75.9223 73.0956 77.917 68.5726 77.917 63.583C77.9168 53.4579 69.7081 45.25 59.583 45.25Z" fill="#3B1B1B"/>
</svg>
